HIERARCHY
ROOT hip
{
  OFFSET 0 0 0
  CHANNELS 6 Xposition Yposition Zposition Zrotation Yrotation Xrotation
  JOINT abdomen
  {
    OFFSET 0 20.6881 -0.73152
    CHANNELS 3 Zrotation Xrotation Yrotation
    JOINT chest
    {
      OFFSET 0 11.7043 -0.48768
      CHANNELS 3 Zrotation Xrotation Yrotation
      JOINT neck
      {
        OFFSET 0 22.1894 -2.19456
        CHANNELS 3 Zrotation Xrotation Yrotation
        JOINT head
        {
          OFFSET -0.24384 7.07133 1.2192
          CHANNELS 3 Zrotation Xrotation Yrotation
          JOINT leftEye
          {
            OFFSET 4.14528 8.04674 8.04672
            CHANNELS 3 Zrotation Xrotation Yrotation
            End Site
            {
              OFFSET 1 0 0
            }
          }
          JOINT rightEye
          {
            OFFSET -3.6576 8.04674 8.04672
            CHANNELS 3 Zrotation Xrotation Yrotation
            End Site
            {
              OFFSET 1 0 0
            }
          }
        }
      }
      JOINT rCollar
      {
        OFFSET -2.68224 19.2634 -4.8768
        CHANNELS 3 Zrotation Xrotation Yrotation
        JOINT rShldr
        {
          OFFSET -8.77824 -1.95073 1.46304
          CHANNELS 3 Zrotation Xrotation Yrotation
          JOINT rForeArm
          {
            OFFSET -28.1742 -1.7115 0.48768
            CHANNELS 3 Zrotation Xrotation Yrotation
            JOINT rHand
            {
              OFFSET -22.5879 0.773209 7.07136
              CHANNELS 3 Zrotation Xrotation Yrotation
              JOINT rThumb1
              {
                OFFSET -1.2192 -0.487915 3.41376
                CHANNELS 3 Zrotation Xrotation Yrotation
                JOINT rThumb2
                {
                  OFFSET -3.37035 -0.52449 3.41376
                  CHANNELS 3 Zrotation Xrotation Yrotation
                  End Site
                  {
                    OFFSET -1.78271 -1.18214 1.43049
                  }
                }
              }
              JOINT rIndex1
              {
                OFFSET -7.75947 0.938293 5.60832
                CHANNELS 3 Zrotation Xrotation Yrotation
                JOINT rIndex2
                {
                  OFFSET -2.54057 -0.884171 1.56538
                  CHANNELS 3 Zrotation Xrotation Yrotation
                  End Site
                  {
                    OFFSET -1.62519 -0.234802 1.16502
                  }
                }
              }
              JOINT rMid1
              {
                OFFSET -8.24714 1.18213 3.41376
                CHANNELS 3 Zrotation Xrotation Yrotation
                JOINT rMid2
                {
                  OFFSET -3.10165 -0.590103 1.0647
                  CHANNELS 3 Zrotation Xrotation Yrotation
                  End Site
                  {
                    OFFSET -2.48547 -0.328903 0.83742
                  }
                }
              }
              JOINT rRing1
              {
                OFFSET -8.82822 0.546677 1.51678
                CHANNELS 3 Zrotation Xrotation Yrotation
                JOINT rRing2
                {
                  OFFSET -2.60934 -0.819778 -0.0198488
                  CHANNELS 3 Zrotation Xrotation Yrotation
                  End Site
                  {
                    OFFSET -2.33842 -0.294052 0.168128
                  }
                }
              }
              JOINT rPinky1
              {
                OFFSET -8.27202 -0.0477905 -0.4584
                CHANNELS 3 Zrotation Xrotation Yrotation
                JOINT rPinky2
                {
                  OFFSET -1.82734 -0.647385 -0.700984
                  CHANNELS 3 Zrotation Xrotation Yrotation
                  End Site
                  {
                    OFFSET -1.69225 -0.51767 -0.607171
                  }
                }
              }
            }
          }
        }
      }
      JOINT lCollar
      {
        OFFSET 2.68224 19.2634 -4.8768
        CHANNELS 3 Zrotation Xrotation Yrotation
        JOINT lShldr
        {
          OFFSET 8.77824 -1.95073 1.46304
          CHANNELS 3 Zrotation Xrotation Yrotation
          JOINT lForeArm
          {
            OFFSET 28.1742 -1.7115 0.48768
            CHANNELS 3 Zrotation Xrotation Yrotation
            JOINT lHand
            {
              OFFSET 22.5879 0.773209 7.07136
              CHANNELS 3 Zrotation Xrotation Yrotation
              JOINT lThumb1
              {
                OFFSET 1.2192 -0.487915 3.41376
                CHANNELS 3 Zrotation Xrotation Yrotation
                JOINT lThumb2
                {
                  OFFSET 3.37035 -0.52449 3.41376
                  CHANNELS 3 Zrotation Xrotation Yrotation
                  End Site
                  {
                    OFFSET 1.78271 -1.18214 1.43049
                  }
                }
              }
              JOINT lIndex1
              {
                OFFSET 7.75947 0.938293 5.60832
                CHANNELS 3 Zrotation Xrotation Yrotation
                JOINT lIndex2
                {
                  OFFSET 2.54057 -0.884171 1.56538
                  CHANNELS 3 Zrotation Xrotation Yrotation
                  End Site
                  {
                    OFFSET 1.62519 -0.234802 1.16502
                  }
                }
              }
              JOINT lMid1
              {
                OFFSET 8.24714 1.18213 3.41376
                CHANNELS 3 Zrotation Xrotation Yrotation
                JOINT lMid2
                {
                  OFFSET 3.10165 -0.590103 1.0647
                  CHANNELS 3 Zrotation Xrotation Yrotation
                  End Site
                  {
                    OFFSET 2.48547 -0.328903 0.83742
                  }
                }
              }
              JOINT lRing1
              {
                OFFSET 8.82822 0.546677 1.51678
                CHANNELS 3 Zrotation Xrotation Yrotation
                JOINT lRing2
                {
                  OFFSET 2.60934 -0.819778 -0.0198488
                  CHANNELS 3 Zrotation Xrotation Yrotation
                  End Site
                  {
                    OFFSET 2.33842 -0.294052 0.168128
                  }
                }
              }
              JOINT lPinky1
              {
                OFFSET 8.27202 -0.0477905 -0.4584
                CHANNELS 3 Zrotation Xrotation Yrotation
                JOINT lPinky2
                {
                  OFFSET 1.82734 -0.647385 -0.700984
                  CHANNELS 3 Zrotation Xrotation Yrotation
                  End Site
                  {
                    OFFSET 1.69225 -0.51767 -0.607171
                  }
                }
              }
            }
          }
        }
      }
    }
  }
  JOINT rButtock
  {
    OFFSET -8.77824 4.35084 1.2192
    CHANNELS 3 Zrotation Xrotation Yrotation
    JOINT rThigh
    {
      OFFSET 0 -1.70687 -2.19456
      CHANNELS 3 Zrotation Xrotation Yrotation
      JOINT rShin
      {
        OFFSET 0 -36.8199 0.73152
        CHANNELS 3 Zrotation Xrotation Yrotation
        JOINT rFoot
        {
          OFFSET 0.73152 -45.1104 -5.12064
          CHANNELS 3 Zrotation Xrotation Yrotation
          End Site
          {
            OFFSET -1.1221 -3.69964 12.103
          }
        }
      }
    }
  }
  JOINT lButtock
  {
    OFFSET 8.77824 4.35084 1.2192
    CHANNELS 3 Zrotation Xrotation Yrotation
    JOINT lThigh
    {
      OFFSET 0 -1.70687 -2.19456
      CHANNELS 3 Zrotation Xrotation Yrotation
      JOINT lShin
      {
        OFFSET 0 -36.8199 0.73152
        CHANNELS 3 Zrotation Xrotation Yrotation
        JOINT lFoot
        {
          OFFSET -0.73152 -45.1104 -5.12064
          CHANNELS 3 Zrotation Xrotation Yrotation
          End Site
          {
            OFFSET 1.1221 -3.69964 12.103
          }
        }
      }
    }
  }
}
MOTION
Frames:	8
Frame Time:	0.03333
-30.9013 50.6668 -2.474 13.734765 -49.359766 -6.948129 -18.282832 10.679242 2.729852 2.553362 -7.849956 4.773714 -10.857989 17.300331 -45.802729 30.102558 -19.295776 17.732518 -6.643177 -0.238703 4.111132 -27.842249 16.339871 -60.159699 2.110517 1.338201 -1.700718 -102.145742 34.286563 127.664804 -146.548086 -56.320245 -125.718278 0.125299 13.789051 4.50536 179.189146 -22.391057 92.970886 -136.263294 11.778988 75.181744 -50.174595 37.023058 37.022992 -9.69173 30.209549 8.558308 -90.456518 53.341174 88.373995 33.513553 -38.94284 -10.407924 -137.47158 -1.633384 -177.24179 -148.000444 28.135577 167.350308 -146.015423 15.617305 -136.843937 25.933008 41.778505 -5.115542 159.696468 -4.895713 -161.092198 119.660762 45.797066 -63.449413 -129.657315 10.815858 41.134945 33.990098 44.086045 -14.515394 -0.894169 4.813454 3.147323 30.870081 18.365224 -23.306158 168.665605 -44.540298 -117.471433 166.43821 -42.690171 -117.87436 157.370748 18.732395 -137.051133 -55.507947 -77.58208 -35.6113 136.827547 12.515691 -170.704581 -29.206021 30.64962 -5.5636 35.829929 -35.646848 24.692778 -61.621267 79.350095 14.789287 -147.928918 68.379105 -19.200516 136.108007 -14.6851 -180.0 76.416389 -83.59978 22.779436 -10.084496 6.902411 -112.891069 115.233981 69.682255 39.579402 -66.788503 47.433641 159.169061 -34.63583 -14.786513 -108.065673 46.10783 85.757508 -147.895061
-31.7662 50.63569999999999 -2.7404 13.749119 -49.349695 -6.748997 -18.697642 10.421766 2.710138 2.65541 -7.700106 5.023449 9.144704 22.828702 101.990034 -38.230453 21.608051 -128.740784 -6.580046 -0.302559 5.259594 -22.887811 15.159037 -66.63601 -154.769568 -22.980314 167.802954 -2.221866 1.403346 -27.501141 30.667703 -11.817538 -54.642857 171.599665 -0.761251 150.297501 -173.36369 -15.050185 93.657945 -73.0901 7.626127 27.495064 1.591523 -10.291159 -0.111531 -84.062443 54.096807 71.01656 93.160552 -74.20956 56.551291 -121.279016 55.337384 85.892371 7.738354 -1.330167 -0.669425 -78.27582 -75.393397 -95.459247 -146.122257 14.485623 -136.585533 -148.106855 14.457938 -133.732946 146.362456 38.785057 -146.15738 87.884711 6.672336 -83.261905 174.891841 9.756782 81.048771 6.072126 -16.849403 4.685029 171.535965 -15.2705 -94.032432 -8.94784 -55.041498 -8.128568 -27.710451 -41.09063 0.937252 -21.806013 -7.503007 0.354841 1.835986 -13.858734 2.318609 1.702494 26.239031 -10.197633 134.47763 23.777009 -165.994804 128.621667 -43.662132 177.883038 87.737084 -49.527826 74.439822 78.007187 -43.623347 83.209777 3.57572 5.635232 -0.0 -82.433236 -54.735726 -83.809781 -76.130674 68.640724 -21.063069 3.772722 75.801641 90.792989 170.710901 75.978715 -0.0 -77.593603 59.804947 165.722602 -23.797176 -12.710323 54.684733 133.228929 49.469924 -49.980565
-32.6107 50.4472 -2.78 15.112728 -50.812995 -7.961058 -17.014375 7.094095 -111.97829 3.795984 2.739666 118.162482 -2.898966 32.496971 -164.20745 21.115582 45.504011 120.042894 -3.223734 -0.205701 7.300068 -21.204956 12.671229 -61.348 2.361884 -0.487705 -0.648978 170.918989 -49.821168 119.231742 28.902695 -61.587606 -42.295024 164.834201 -20.609627 146.321021 -93.284135 41.908604 56.656521 -53.170538 3.089259 41.798762 -128.213144 22.357807 103.37962 -173.775188 -16.108584 108.575571 -168.310162 -40.716016 137.467095 0.223821 -2.800365 25.380657 -63.99957 -74.149899 -90.964922 -167.344823 -1.833346 167.770892 -157.627664 40.623839 -143.460581 -153.414455 13.835569 -136.507501 158.62874 -0.705136 -161.072102 -87.541636 -35.393009 -131.440619 -111.564833 44.600636 -95.88762 137.850205 53.424684 -113.805612 -101.163658 -55.90558 -43.482644 32.201338 -3.941249 4.547398 82.592662 39.032502 -70.324178 105.609339 51.698093 -78.093856 169.115781 -19.004024 -143.776332 53.885677 64.505671 -42.68629 -2.283964 -0.539349 -4.488073 6.909801 0.029546 14.758661 -65.879222 86.330037 33.550845 16.109689 -40.907432 12.449976 10.105143 5.69544 5.297 -91.32725 -52.676798 180.0 -91.258484 -19.457604 -72.121362 29.711515 8.946556 173.98452 25.726455 7.774209 26.544015 -1.037707 12.910965 -175.365326 -11.9047 -34.197234 15.238631 138.416874 0.210598 -178.848346
-33.3518 50.3746 -2.6841 15.671651 -51.229631 -8.632411 -16.527541 7.962627 -91.813838 5.40467 0.895788 98.111023 -1.748516 13.365391 13.745854 -11.423393 -27.525011 -51.19715 -2.535043 -0.072806 3.28963 -28.307175 14.426614 -53.303288 -156.021998 -50.016952 172.01024 -118.101379 -46.743353 -130.79991 -32.60763 10.602879 -43.497349 91.527454 -66.388374 80.462319 -179.889058 -21.905271 93.209938 20.292962 -60.488135 10.302457 89.128246 -75.471801 44.898014 -30.81495 56.274785 20.244747 5.185437 2.322511 6.367611 -76.910575 -79.212909 -95.760051 9.967605 -5.215593 0.371461 -170.398513 27.603178 -176.610215 -125.083948 -26.85904 -119.761105 -147.231904 23.003494 -137.636625 -1.517006 -45.020753 8.07824 163.948494 12.138976 117.439002 -92.403112 88.949356 -136.996785 168.410844 10.703147 -140.187289 169.07976 -11.911208 -94.839238 70.386229 5.704283 -29.85941 87.729905 38.26617 -76.304346 110.641073 55.467122 -80.118206 157.241617 10.40411 -137.964394 -7.772371 -22.875736 0.252855 -0.41882 -7.344011 -1.857315 122.509381 -70.871332 131.099684 57.984853 -49.009844 51.661488 148.21246 14.369956 136.517021 2.358145 5.092656 2.596393 -83.896449 -57.668597 180.0 -87.526371 -12.328244 -145.22795 -61.727401 -39.857109 -155.350043 -151.124811 74.877235 -29.737066 -77.43795 71.523791 76.408373 8.809248 -35.835226 50.557197 44.490876 14.769533 158.330544
-34.0001 50.328700000000005 -2.5287 15.754092 -51.480331 -8.981539 -18.177537 5.907033 180.0 -2.807598 3.227604 -173.561913 -8.249837 15.274317 -20.895726 15.487895 -27.504073 -9.304809 -3.148471 0.022824 -0.830464 -33.725079 14.443385 -45.374487 -155.385638 -21.681685 166.203142 -83.761175 -59.67336 -83.979287 -18.153884 34.520353 -51.040595 140.433183 -52.701977 126.945433 -169.18476 -8.490384 94.763905 173.85154 -32.864225 96.015728 -133.072132 17.506913 108.064282 -3.739151 10.966298 -1.94861 92.053705 -76.016418 58.07256 -171.89751 20.040726 128.613608 -63.45582 72.637446 90.685606 16.397529 -0.766802 -13.571161 -148.512744 16.704823 -139.143035 -97.266174 -41.442062 -91.80399 161.315804 -29.909794 -166.55761 -119.253837 -16.605233 -170.326272 165.914793 15.998343 -42.470491 172.246816 -2.231976 -142.655306 91.846604 42.37786 -56.162493 -60.646348 -52.667586 -21.747139 16.300492 24.08415 -16.111639 173.116966 -5.98997 -106.745757 162.61533 -5.073519 -140.594192 165.542438 -3.47409 -142.194716 74.423321 -76.225507 91.179925 -5.57898 -26.382962 -1.986306 153.396045 30.966045 146.937576 143.01154 -10.013119 141.022606 -1.214261 5.058569 1.662625 -78.328141 -58.329822 -80.028439 -28.810818 75.37867 63.925601 85.421555 -46.155756 -11.803677 70.791022 44.879117 52.959807 -41.62764 32.160599 -87.810137 -6.709681 23.668383 29.020315 -156.277651 -29.861395 -24.186853
-34.5948 50.2923 -2.3875 15.441121 -51.466713 -8.928863 -17.423139 6.202786 -180.0 -2.563036 3.313748 -173.766964 3.095108 15.154299 43.177252 -27.600726 -16.627069 -80.487997 -4.625432 0.121086 -2.997496 -36.947051 14.062933 -40.528034 5.320131 -43.275452 -9.423437 44.192461 16.901746 11.872124 93.062463 -37.798004 58.004897 -175.551119 41.633742 150.514549 -0.870445 2.111909 -4.795476 3.809638 -17.904919 -5.992368 -16.997098 18.444556 9.340148 -19.470754 35.890904 15.057536 -156.995965 -8.592551 139.009935 -158.663486 -12.032779 124.742693 -136.170922 -5.772812 -175.656925 -53.493844 -84.89065 -82.185427 23.639846 61.018802 5.313723 -154.461284 10.819337 -147.657214 154.656979 13.62599 -157.619409 -90.970179 -24.391912 -122.228372 -98.301777 32.83547 -92.53044 103.964312 61.946858 -81.224203 1.373861 7.496046 2.90097 146.732136 -38.383043 -114.625005 -60.365508 -66.262341 -12.381535 -49.638114 -25.105294 -3.240433 -1.365497 -11.092465 -1.005256 1.526696 20.21665 -3.463066 144.498899 -1.936888 -176.547213 153.03027 -78.273885 -174.822431 -11.051095 59.509336 -16.770408 81.289177 -52.348422 86.000314 2.679442 5.503435 4.706711 -85.452973 -56.245444 -180.0 -77.403388 -16.830154 100.987318 -71.695035 -9.785466 18.246291 -96.168955 48.107886 -53.053934 83.542859 82.983831 7.347557 -20.127726 16.046753 66.936297 -109.384918 -36.595326 -8.761338
-35.181000000000004 50.2552 -2.3040000000000003 14.972016 -51.237058 -8.596931 -18.70603 10.406775 47.484621 -2.5362 -8.095161 -41.446991 8.10459 22.188514 92.910151 -38.009961 13.871991 -121.573009 -6.085066 0.174657 -3.285084 -37.787836 14.121398 -39.789468 -153.843927 -3.678224 162.677291 162.696461 24.008852 -160.066499 -101.177241 37.978433 90.61738 31.24841 -48.9792 24.508186 -172.312766 -11.30451 95.245524 -131.851203 8.005517 71.74023 -142.863081 1.77127 115.743762 105.732922 -67.303509 52.959424 -155.337276 -5.379433 139.059557 -157.363953 -12.046749 126.268564 -137.020053 1.771042 -176.522948 -146.367941 -32.881585 -177.05917 22.750984 58.947181 6.156915 -28.18495 -42.070867 -21.063028 16.343763 42.929012 -15.736752 62.177788 56.583073 -144.874918 -152.699533 -74.550119 111.042563 10.71917 -5.54204 4.034284 4.599428 10.686389 1.429046 36.512606 19.863015 -27.694539 7.000812 15.641178 -9.349968 8.044656 2.557489 -7.652065 41.318384 49.505119 -32.157216 45.373937 55.824469 -40.722907 140.120892 18.112833 -169.18313 63.353629 80.4524 -89.798206 12.398255 87.324271 -49.023139 20.1276 -42.145523 25.004697 -5.900842 5.571159 -1.516021 -75.629172 -62.755263 180.0 -87.423919 -12.701655 -144.754398 45.929182 70.321607 -131.460162 145.589473 75.875899 17.649435 -71.09713 59.750631 0.0 26.148813 -2.973795 -96.043747 71.797967 17.197033 2.621111
-35.779300000000006 50.267399999999995 -2.3483 14.384968 -50.660263 -7.733982 -14.442401 8.496632 -94.460128 5.507071 0.50017 100.079395 8.318745 23.404761 101.574952 -37.69609 19.594872 -128.039136 -7.513946 0.164073 -2.498214 -36.957508 15.13631 -43.363066 -84.195196 69.157071 89.13224 -62.924637 44.828699 47.927346 -175.897074 -6.761334 -148.198113 -6.087138 35.412887 4.855291 -1.76598 3.317149 -4.614467 -128.915532 -14.865125 106.999929 -15.841607 18.252877 9.207673 -175.528679 -35.745343 111.092172 22.428824 -40.32549 2.616262 -167.040649 46.867253 138.277614 7.690692 10.193389 -0.891672 5.489717 -0.059731 -2.346854 -25.010347 -34.486455 -26.115056 -2.062206 -24.14813 -5.020227 145.423015 40.171827 -147.096136 110.222703 9.16864 -85.863795 107.393924 34.224621 123.750381 -15.654991 -67.872151 -1.876352 168.71095 -12.210061 -93.432717 115.487368 10.368813 -60.477682 -149.901818 -70.968021 -89.723307 -32.728406 -5.570608 7.592771 -3.27149 -23.167365 0.76683 157.79766 -4.996107 -142.463749 -4.008397 -2.366658 -4.768042 174.337037 45.391201 -179.424441 79.111105 -53.475337 72.767621 -46.274599 79.417723 11.26447 -176.777259 70.198347 -3.424806 147.257514 -6.899945 -0.0 -39.570914 76.628478 -8.957166 139.81332 9.792789 -43.858827 -31.451057 1.952914 -14.836298 42.571867 27.503484 116.688753 25.724718 -8.289907 -86.74449 -107.302415 -34.971091 -7.01558
